<svg width="26" height="26" viewBox="0 0 26 26" fill="none" xmlns="http://www.w3.org/2000/svg">
<path d="M8.66602 6.229C8.22185 6.229 7.85352 5.86067 7.85352 5.4165V2.1665C7.85352 1.72234 8.22185 1.354 8.66602 1.354C9.11018 1.354 9.47852 1.72234 9.47852 2.1665V5.4165C9.47852 5.86067 9.11018 6.229 8.66602 6.229Z" fill="#BF9F35"/>
<path d="M17.334 6.229C16.8898 6.229 16.5215 5.86067 16.5215 5.4165V2.1665C16.5215 1.72234 16.8898 1.354 17.334 1.354C17.7782 1.354 18.1465 1.72234 18.1465 2.1665V5.4165C18.1465 5.86067 17.7782 6.229 17.334 6.229Z" fill="#BF9F35"/>
<path d="M22.2077 10.6602H3.79102C3.34685 10.6602 2.97852 10.2918 2.97852 9.84766C2.97852 9.40349 3.34685 9.03516 3.79102 9.03516H22.2077C22.6518 9.03516 23.0202 9.40349 23.0202 9.84766C23.0202 10.2918 22.6518 10.6602 22.2077 10.6602Z" fill="#BF9F35"/>
<path d="M17.3333 24.6457H8.66667C4.7125 24.6457 2.4375 22.3707 2.4375 18.4165V9.20817C2.4375 5.254 4.7125 2.979 8.66667 2.979H17.3333C21.2875 2.979 23.5625 5.254 23.5625 9.20817V18.4165C23.5625 22.3707 21.2875 24.6457 17.3333 24.6457ZM8.66667 4.604C5.56833 4.604 4.0625 6.10984 4.0625 9.20817V18.4165C4.0625 21.5148 5.56833 23.0207 8.66667 23.0207H17.3333C20.4317 23.0207 21.9375 21.5148 21.9375 18.4165V9.20817C21.9375 6.10984 20.4317 4.604 17.3333 4.604H8.66667Z" fill="#BF9F35"/>
<path d="M9.20833 15.7082C9.0675 15.7082 8.92666 15.6757 8.79666 15.6215C8.66666 15.5674 8.54751 15.4915 8.43918 15.394C8.34168 15.2857 8.26582 15.1665 8.21165 15.0365C8.15749 14.9065 8.125 14.7657 8.125 14.6248C8.125 14.3432 8.24418 14.0615 8.43918 13.8557C8.54751 13.7582 8.66666 13.6823 8.79666 13.6282C8.99166 13.5415 9.20835 13.5198 9.42501 13.5632C9.49001 13.574 9.55501 13.5957 9.62001 13.6282C9.68501 13.6498 9.75 13.6824 9.815 13.7257C9.86916 13.769 9.92332 13.8124 9.97749 13.8557C10.0208 13.9099 10.075 13.964 10.1075 14.0182C10.1508 14.0832 10.1833 14.1482 10.205 14.2132C10.2375 14.2782 10.2592 14.3432 10.27 14.4082C10.2808 14.484 10.2917 14.549 10.2917 14.6248C10.2917 14.9065 10.1725 15.1882 9.97749 15.394C9.77166 15.589 9.49 15.7082 9.20833 15.7082Z" fill="#BF9F35"/>
<path d="M12.9993 15.7084C12.7177 15.7084 12.436 15.5893 12.2302 15.3943C12.1869 15.3401 12.1435 15.2859 12.1002 15.2318C12.0569 15.1668 12.0243 15.1018 12.0027 15.0368C11.9702 14.9718 11.9485 14.9068 11.9377 14.8418C11.9268 14.766 11.916 14.7009 11.916 14.6251C11.916 14.4843 11.9485 14.3434 12.0027 14.2134C12.0568 14.0834 12.1327 13.9643 12.2302 13.8559C12.5335 13.5526 13.021 13.4551 13.411 13.6284C13.5519 13.6826 13.6602 13.7584 13.7685 13.8559C13.9635 14.0618 14.0827 14.3434 14.0827 14.6251C14.0827 14.7009 14.0719 14.766 14.061 14.8418C14.0502 14.9068 14.0285 14.9718 13.996 15.0368C13.9744 15.1018 13.9418 15.1668 13.8985 15.2318C13.8552 15.2859 13.8118 15.3401 13.7685 15.3943C13.6602 15.4918 13.5519 15.5676 13.411 15.6218C13.281 15.676 13.1402 15.7084 12.9993 15.7084Z" fill="#BF9F35"/>
<path d="M9.20833 19.4999C9.0675 19.4999 8.92666 19.4675 8.79666 19.4133C8.66666 19.3591 8.54751 19.2833 8.43918 19.1858C8.34168 19.0774 8.26582 18.9691 8.21165 18.8283C8.15749 18.6983 8.125 18.5574 8.125 18.4166C8.125 18.1349 8.24418 17.8533 8.43918 17.6475C8.54751 17.55 8.66666 17.4741 8.79666 17.4199C9.19749 17.2466 9.67416 17.3441 9.97749 17.6475C10.0208 17.7016 10.075 17.7558 10.1075 17.8099C10.1508 17.8749 10.1833 17.9399 10.205 18.0049C10.2375 18.0699 10.2592 18.1349 10.27 18.2108C10.2808 18.2758 10.2917 18.3516 10.2917 18.4166C10.2917 18.6983 10.1725 18.9799 9.97749 19.1858C9.77166 19.3808 9.49 19.4999 9.20833 19.4999Z" fill="#BF9F35"/>
</svg>
