<svg width="26" height="26" viewBox="0 0 26 26" fill="none" xmlns="http://www.w3.org/2000/svg">
<path d="M13.1708 12.5882C13.1383 12.5882 13.1167 12.5882 13.0842 12.5882C13.03 12.5773 12.9542 12.5773 12.8892 12.5882C9.7475 12.4907 7.375 10.0207 7.375 6.9765C7.375 3.87817 9.89917 1.354 12.9975 1.354C16.0958 1.354 18.62 3.87817 18.62 6.9765C18.6092 10.0207 16.2258 12.4907 13.2033 12.5882C13.1925 12.5882 13.1817 12.5882 13.1708 12.5882ZM12.9975 2.979C10.7983 2.979 9 4.77734 9 6.9765C9 9.14317 10.69 10.8873 12.8458 10.9632C12.9 10.9523 13.0517 10.9523 13.1925 10.9632C15.3158 10.8657 16.9842 9.1215 16.995 6.9765C16.995 4.77734 15.1967 2.979 12.9975 2.979Z" fill="#BF9F35"/>
<path d="M13.1852 24.4293C11.0619 24.4293 8.92771 23.8877 7.31354 22.8043C5.80771 21.8077 4.98438 20.4427 4.98438 18.9585C4.98438 17.4743 5.80771 16.0985 7.31354 15.091C10.5635 12.9352 15.8285 12.9352 19.0569 15.091C20.5519 16.0877 21.386 17.4527 21.386 18.9368C21.386 20.421 20.5627 21.7968 19.0569 22.8043C17.4319 23.8877 15.3085 24.4293 13.1852 24.4293ZM8.21271 16.456C7.17271 17.1493 6.60938 18.0377 6.60938 18.9693C6.60938 19.8902 7.18354 20.7785 8.21271 21.461C10.9102 23.2702 15.4602 23.2702 18.1577 21.461C19.1977 20.7677 19.761 19.8793 19.761 18.9477C19.761 18.0268 19.1869 17.1385 18.1577 16.456C15.4602 14.6577 10.9102 14.6577 8.21271 16.456Z" fill="#BF9F35"/>
</svg>
