<svg width="64" height="64" viewBox="0 0 64 64" fill="none" xmlns="http://www.w3.org/2000/svg">
<path d="M58.6667 17.0656H42.6667V12.0522L51.7515 9.52745C52.2052 9.406 52.6062 9.1382 52.8922 8.76558C53.1782 8.39297 53.3332 7.93637 53.3332 7.46665C53.3332 6.99692 53.1782 6.54033 52.8922 6.16772C52.6062 5.7951 52.2052 5.52729 51.7515 5.40585L32.5899 0.0799816C32.2042 -0.0266606 31.7969 -0.0266606 31.4112 0.0799816L12.2485 5.40478C11.7948 5.52623 11.3938 5.79403 11.1078 6.16665C10.8218 6.53926 10.6668 6.99586 10.6668 7.46558C10.6668 7.93531 10.8218 8.3919 11.1078 8.76452C11.3938 9.13713 11.7948 9.40494 12.2485 9.52638L21.3333 12.0522V17.0656H5.33333C3.91937 17.0673 2.5638 17.6297 1.56397 18.6296C0.564141 19.6294 0.00169371 20.9849 0 22.3989L0 58.6656C0.00169371 60.0796 0.564141 61.4351 1.56397 62.4349C2.5638 63.4348 3.91937 63.9972 5.33333 63.9989H58.6667C60.0806 63.9972 61.4362 63.4348 62.436 62.4349C63.4359 61.4351 63.9983 60.0796 64 58.6656V22.3989C63.9983 20.9849 63.4359 19.6294 62.436 18.6296C61.4362 17.6297 60.0806 17.0673 58.6667 17.0656ZM32.0181 2.13225L51.1797 7.46558L32.0171 12.7989C32.0058 12.8011 31.9942 12.8011 31.9829 12.7989L12.8203 7.46558L32.0181 2.13225ZM31.4101 14.848C31.602 14.903 31.8004 14.9314 32 14.9322C32.199 14.9323 32.3971 14.9054 32.5888 14.8522L40.5333 12.6442V17.712C40 18.1141 38.016 19.1989 32 19.1989C25.8613 19.1989 23.9168 18.0693 23.4667 17.7418V12.6432L31.4101 14.848ZM5.33333 19.1989H21.9168C22.8416 20.0597 25.3301 21.3323 32 21.3323C38.6699 21.3323 41.1584 20.0597 42.0832 19.1989H58.6667C59.5154 19.1989 60.3293 19.5361 60.9294 20.1362C61.5295 20.7363 61.8667 21.5502 61.8667 22.3989V49.0656H2.13333V22.3989C2.13333 21.5502 2.47048 20.7363 3.07059 20.1362C3.67071 19.5361 4.48464 19.1989 5.33333 19.1989ZM58.6667 61.8656H5.33333C4.48464 61.8656 3.67071 61.5284 3.07059 60.9283C2.47048 60.3282 2.13333 59.5143 2.13333 58.6656V51.1989H61.8667V58.6656C61.8667 59.5143 61.5295 60.3282 60.9294 60.9283C60.3293 61.5284 59.5154 61.8656 58.6667 61.8656Z" fill="#BF9F35"/>
<path d="M11.7775 54.8256L9.69746 53.6331C9.34931 53.4344 8.9552 53.3304 8.55435 53.3313C8.15349 53.3322 7.75988 53.4381 7.41266 53.6384C7.10822 53.8068 6.85403 54.0531 6.67615 54.352C6.49827 54.651 6.4031 54.9919 6.40039 55.3398V57.7248C6.4031 58.0727 6.49827 58.4136 6.67615 58.7126C6.85403 59.0115 7.10822 59.2578 7.41266 59.4262C7.75968 59.6265 8.15313 59.7324 8.55381 59.7333C8.9545 59.7342 9.34844 59.6302 9.69639 59.4315L11.7775 58.239C12.0866 58.0738 12.345 57.8278 12.5253 57.5272C12.7055 57.2267 12.8007 56.8828 12.8007 56.5323C12.8007 56.1818 12.7055 55.8379 12.5253 55.5374C12.345 55.2368 12.0866 54.9908 11.7775 54.8256ZM8.64039 57.5808C8.60767 57.5981 8.5703 57.6044 8.53372 57.599V55.4656C8.57008 55.4596 8.60741 55.4652 8.64039 55.4816L10.4655 56.5323L8.64039 57.5808ZM56.5337 55.4656H32.0004C32.0004 54.8998 31.7756 54.3572 31.3756 53.9571C30.9755 53.5571 30.4329 53.3323 29.8671 53.3323H27.7337C27.1679 53.3323 26.6253 53.5571 26.2252 53.9571C25.8252 54.3572 25.6004 54.8998 25.6004 55.4656H16.0004C15.7175 55.4656 15.4462 55.578 15.2461 55.778C15.0461 55.9781 14.9337 56.2494 14.9337 56.5323C14.9337 56.8152 15.0461 57.0865 15.2461 57.2865C15.4462 57.4866 15.7175 57.599 16.0004 57.599H25.6004C25.6004 58.1648 25.8252 58.7074 26.2252 59.1075C26.6253 59.5075 27.1679 59.7323 27.7337 59.7323H29.8671C30.4329 59.7323 30.9755 59.5075 31.3756 59.1075C31.7756 58.7074 32.0004 58.1648 32.0004 57.599H56.5337C56.8166 57.599 57.0879 57.4866 57.288 57.2865C57.488 57.0865 57.6004 56.8152 57.6004 56.5323C57.6004 56.2494 57.488 55.9781 57.288 55.778C57.0879 55.578 56.8166 55.4656 56.5337 55.4656ZM27.7337 57.599V55.4656H29.8671V57.599H27.7337ZM38.7129 42.3531C38.913 42.5531 39.1842 42.6654 39.4671 42.6654C39.7499 42.6654 40.0212 42.5531 40.2212 42.3531L47.6879 34.8864C47.8878 34.6864 48.0002 34.4151 48.0002 34.1323C48.0002 33.8495 47.8878 33.5782 47.6879 33.3782L40.2212 25.9115C40.02 25.7172 39.7506 25.6097 39.4709 25.6121C39.1912 25.6145 38.9237 25.7267 38.7259 25.9245C38.5281 26.1223 38.416 26.3898 38.4135 26.6695C38.4111 26.9491 38.5186 27.2186 38.7129 27.4198L45.4255 34.1323L38.7129 40.8448C38.513 41.0449 38.4006 41.3161 38.4006 41.599C38.4006 41.8818 38.513 42.1531 38.7129 42.3531ZM23.7796 42.3531C23.9808 42.5474 24.2502 42.6549 24.5299 42.6525C24.8096 42.6501 25.0771 42.5379 25.2749 42.3401C25.4726 42.1423 25.5848 41.8748 25.5872 41.5951C25.5897 41.3155 25.4822 41.046 25.2879 40.8448L18.5753 34.1323L25.2879 27.4198C25.4822 27.2186 25.5897 26.9491 25.5872 26.6695C25.5848 26.3898 25.4726 26.1223 25.2749 25.9245C25.0771 25.7267 24.8096 25.6145 24.5299 25.6121C24.2502 25.6097 23.9808 25.7172 23.7796 25.9115L16.3129 33.3782C16.113 33.5782 16.0006 33.8495 16.0006 34.1323C16.0006 34.4151 16.113 34.6864 16.3129 34.8864L23.7796 42.3531ZM28.4249 43.6651C28.5453 43.709 28.6723 43.7318 28.8004 43.7323C29.0175 43.7325 29.2296 43.6665 29.4082 43.5429C29.5868 43.4194 29.7234 43.2443 29.7999 43.0411L36.1999 25.9744C36.2989 25.7094 36.2885 25.4158 36.1711 25.1584C36.0537 24.9009 35.8388 24.7006 35.5737 24.6016C35.3086 24.5026 35.0151 24.513 34.7576 24.6304C34.5002 24.7478 34.2999 24.9627 34.2009 25.2278L27.8009 42.2944C27.7024 42.559 27.7127 42.8518 27.8297 43.1087C27.9467 43.3656 28.1607 43.5657 28.4249 43.6651Z" fill="#BF9F35"/>
</svg>
