<svg width="22" height="18" viewBox="0 0 22 18" fill="none" xmlns="http://www.w3.org/2000/svg">
<path d="M14.3867 7.93672L9.52636 5.06402C9.24689 4.89882 8.91659 4.905 8.64267 5.08031C8.36857 5.25581 8.20508 5.56587 8.20508 5.91V11.6062C8.20508 11.9487 8.36759 12.2582 8.63983 12.4338C8.78197 12.5256 8.93958 12.5717 9.09754 12.5717C9.24533 12.5714 9.39074 12.5315 9.52069 12.4554L14.3812 9.63221C14.5227 9.55 14.6411 9.42801 14.7239 9.27913C14.8066 9.13025 14.8505 8.96 14.8511 8.78637C14.8518 8.61268 14.809 8.44204 14.7272 8.29247C14.6455 8.14291 14.5278 8.01999 14.3867 7.93672ZM9.49431 10.8896V6.63238L13.1269 8.77945L9.49431 10.8896Z" fill="#BF9F35"/>
<path d="M21.838 4.24832L21.837 4.23746C21.8184 4.04618 21.6329 2.34475 20.8672 1.47933C19.9822 0.461422 18.9787 0.33777 18.4962 0.278496C18.4597 0.274149 18.4233 0.26943 18.3869 0.264339L18.3485 0.260023C15.4401 0.0315629 11.0477 0.000371328 11.0038 0.000185664L10.9999 0L10.996 0.000185664C10.9521 0.000371328 6.55973 0.0315629 3.62512 0.260023L3.58636 0.264339C3.55512 0.268888 3.5207 0.273066 3.48328 0.2778C3.00628 0.337213 2.01363 0.461097 1.12607 1.51576C0.39677 2.37195 0.185967 4.03694 0.164311 4.22404L0.161819 4.24832C0.155245 4.32792 0 6.22286 0 8.12517V9.90347C0 11.8058 0.155245 13.7007 0.161819 13.7805L0.162979 13.7924C0.181627 13.9806 0.366907 15.6509 1.12908 16.5167C1.96129 17.5005 3.0135 17.6307 3.57948 17.7007C3.66894 17.7117 3.74599 17.7211 3.79849 17.7311L3.84937 17.7387C5.52866 17.9113 10.7938 17.9963 11.017 17.9998L11.0238 18L11.0305 17.9998C11.0744 17.9996 15.4666 17.9684 18.3751 17.74L18.4135 17.7357C18.4502 17.7304 18.4915 17.7257 18.5368 17.7206C19.0112 17.6662 19.9984 17.5532 20.8738 16.5128C21.6031 15.6565 21.814 13.9915 21.8355 13.8046L21.838 13.7803C21.8446 13.7005 22 11.8058 22 9.90347V8.12517C21.9998 6.22281 21.8446 4.32811 21.838 4.24832ZM20.7106 9.90347C20.7106 11.6642 20.5683 13.4775 20.5548 13.6439C20.5001 14.1025 20.2777 15.1559 19.9224 15.5731C19.3745 16.2242 18.8118 16.2888 18.4009 16.3358C18.3551 16.3408 18.3093 16.3464 18.2636 16.3524C15.4505 16.5721 11.224 16.6058 11.0293 16.6071C10.8109 16.6037 5.6228 16.5179 3.99473 16.3546C3.91129 16.3399 3.82114 16.3287 3.72618 16.317C3.24429 16.2574 2.58464 16.1758 2.07744 15.5731L2.06549 15.5594C1.71637 15.1664 1.50037 14.1814 1.44546 13.6494C1.43523 13.5236 1.28922 11.6889 1.28922 9.90347V8.12517C1.28922 6.36647 1.43123 4.55513 1.44498 4.38525C1.5103 3.8451 1.73687 2.85551 2.07744 2.4555C2.64204 1.78465 3.23741 1.71034 3.63117 1.66118C3.66877 1.65645 3.70383 1.65213 3.73623 1.64758C6.59028 1.42674 10.8472 1.39392 10.9999 1.39267C11.1527 1.39373 15.408 1.42674 18.2367 1.64758C18.2715 1.65232 18.3094 1.65701 18.3502 1.66211C18.7552 1.71196 19.3673 1.78739 19.9291 2.43466L19.9343 2.44065C20.2835 2.83356 20.4995 3.83587 20.5543 4.37852C20.5641 4.4973 20.7106 6.33597 20.7106 8.12517V9.90347Z" fill="#BF9F35"/>
</svg>
