<svg width="22" height="26" viewBox="0 0 22 26" fill="none" xmlns="http://www.w3.org/2000/svg">
<path d="M18.7782 3.22086C16.7006 1.14385 13.9382 0 11 0C8.06184 0 5.29942 1.14385 3.22183 3.22086C1.1442 5.29793 0 8.05942 0 10.9967C0 16.9387 5.62005 21.881 8.63935 24.5362C9.05893 24.9052 9.42126 25.2238 9.70994 25.4934C10.0716 25.8311 10.5358 26 11 26C11.4642 26 11.9283 25.8311 12.2901 25.4934C12.5787 25.2238 12.9411 24.9052 13.3607 24.5362C16.38 21.881 22 16.9387 22 10.9967C22 8.05942 20.8558 5.29793 18.7782 3.22086ZM12.3544 23.3927C11.9256 23.7697 11.5553 24.0954 11.25 24.3804C11.1098 24.5113 10.8902 24.5113 10.7499 24.3804C10.4446 24.0953 10.0743 23.7697 9.64553 23.3926C6.80701 20.8965 1.52339 16.25 1.52339 10.9967C1.52339 5.77294 5.77452 1.52309 10.9999 1.52309C16.2253 1.52309 20.4764 5.77294 20.4764 10.9967C20.4765 16.25 15.1929 20.8965 12.3544 23.3927Z" fill="#BF9F35"/>
<path d="M10.9999 5.73511C8.32695 5.73511 6.15234 7.90901 6.15234 10.5812C6.15234 13.2534 8.32695 15.4273 10.9999 15.4273C13.6729 15.4273 15.8475 13.2534 15.8475 10.5812C15.8475 7.90901 13.6729 5.73511 10.9999 5.73511ZM10.9999 13.9042C9.16703 13.9042 7.67584 12.4134 7.67584 10.5811C7.67584 8.74883 9.16703 7.25809 10.9999 7.25809C12.8328 7.25809 14.324 8.74883 14.324 10.5811C14.324 12.4134 12.8328 13.9042 10.9999 13.9042Z" fill="#BF9F35"/>
</svg>
