<svg width="18" height="18" viewBox="0 0 18 18" fill="none" xmlns="http://www.w3.org/2000/svg">
<path d="M9 0C10.78 0 12.5201 0.527841 14.0001 1.51677C15.4802 2.50571 16.6337 3.91131 17.3149 5.55585C17.9961 7.20038 18.1743 9.00998 17.8271 10.7558C17.4798 12.5016 16.6226 14.1053 15.364 15.364C14.1053 16.6226 12.5016 17.4798 10.7558 17.8271C9.00998 18.1743 7.20038 17.9961 5.55585 17.3149C3.91131 16.6337 2.5057 15.4802 1.51677 14.0001C0.527838 12.5201 -3.8147e-06 10.78 -3.8147e-06 9C0.00257683 6.61384 0.951616 4.32616 2.63888 2.63889C4.32615 0.951621 6.61384 0.00258081 9 0ZM9 16.5C10.4834 16.5 11.9334 16.0601 13.1668 15.236C14.4001 14.4119 15.3614 13.2406 15.9291 11.8701C16.4967 10.4997 16.6453 8.99168 16.3559 7.53682C16.0665 6.08197 15.3522 4.74559 14.3033 3.6967C13.2544 2.64781 11.918 1.9335 10.4632 1.64411C9.00832 1.35472 7.50032 1.50325 6.12987 2.0709C4.75942 2.63856 3.58809 3.59985 2.76397 4.83322C1.93986 6.06659 1.5 7.51664 1.5 9C1.50218 10.9885 2.29306 12.8948 3.69911 14.3009C5.10516 15.7069 7.01154 16.4978 9 16.5Z" fill="#BF9F35"/>
<path d="M8.99919 4.5C9.1981 4.5 9.38886 4.57902 9.52952 4.71967C9.67017 4.86032 9.74919 5.05109 9.74919 5.25V8.49375L12.2774 10.0778C12.4465 10.1834 12.5667 10.3518 12.6116 10.5461C12.6564 10.7403 12.6223 10.9444 12.5167 11.1135C12.4111 11.2826 12.2426 11.4028 12.0484 11.4476C11.8541 11.4925 11.65 11.4584 11.4809 11.3527L8.60094 9.55275C8.49212 9.48457 8.40263 9.3896 8.34104 9.27693C8.27945 9.16425 8.24783 9.03765 8.24919 8.90925V5.25C8.24919 5.05109 8.3282 4.86032 8.46886 4.71967C8.60951 4.57902 8.80027 4.5 8.99919 4.5Z" fill="#BF9F35"/>
</svg>
