<svg width="64" height="64" viewBox="0 0 64 64" fill="none" xmlns="http://www.w3.org/2000/svg">
<path d="M59.3166 54.9479H57.7822V48.9746H59.3166C61.8994 48.9746 64 46.9442 64 44.4477C64 41.9513 61.8994 39.9209 59.3166 39.9209H12.4573C5.58807 39.9209 0 45.3222 0 51.9606C0 58.599 5.58807 64.0003 12.4573 64.0003H59.3166C61.8994 64.0003 64 61.9699 64 59.4734C64 56.977 61.8994 54.9479 59.3166 54.9479ZM55.0735 50.6528H26.4018C26.0426 50.6528 25.6981 50.7907 25.4441 51.0362C25.1901 51.2817 25.0474 51.6147 25.0474 51.9619C25.0474 52.3091 25.1901 52.6421 25.4441 52.8876C25.6981 53.1331 26.0426 53.271 26.4018 53.271H55.0735V54.9479H11.7951C10.0913 54.9479 8.70443 53.6087 8.70443 51.9619C8.70443 50.3151 10.0899 48.9759 11.7951 48.9759H55.0735V50.6528ZM59.3166 61.3834H12.4573C7.08192 61.3834 2.70871 57.1564 2.70871 51.9619C2.70871 46.7674 7.08192 42.5404 12.4573 42.5404H59.3166C60.4055 42.5404 61.2913 43.3965 61.2913 44.449C61.2913 45.5015 60.4055 46.3577 59.3166 46.3577H11.7951C8.59744 46.3577 5.99573 48.8724 5.99573 51.9619C5.99573 55.0513 8.59744 57.5661 11.7951 57.5661H59.3166C60.4055 57.5661 61.2913 58.4222 61.2913 59.4747C61.2913 60.5273 60.4055 61.3834 59.3166 61.3834Z" fill="#BF9F35"/>
<path d="M14.37 53.2707H20.3075C20.6667 53.2707 21.0111 53.1328 21.2651 52.8873C21.5191 52.6418 21.6618 52.3088 21.6618 51.9616C21.6618 51.6144 21.5191 51.2815 21.2651 51.036C21.0111 50.7905 20.6667 50.6525 20.3075 50.6525H14.37C14.0108 50.6525 13.6663 50.7905 13.4123 51.036C13.1583 51.2815 13.0156 51.6144 13.0156 51.9616C13.0156 52.3088 13.1583 52.6418 13.4123 52.8873C13.6663 53.1328 14.0108 53.2707 14.37 53.2707ZM32.001 36.2788C42.3496 36.2788 50.7669 28.1415 50.7669 18.14C50.7669 8.1386 42.3496 0 32.001 0C21.6523 0 13.235 8.13729 13.235 18.1387C13.235 28.1402 21.6523 36.2788 32.001 36.2788ZM19.7332 8.14646L20.9413 9.31285C21.0668 9.43504 21.2161 9.53201 21.3805 9.59819C21.545 9.66436 21.7214 9.69843 21.8995 9.69843C22.0776 9.69843 22.254 9.66436 22.4185 9.59819C22.5829 9.53201 22.7322 9.43504 22.8577 9.31285C23.1116 9.06736 23.2543 8.73445 23.2543 8.38733C23.2543 8.0402 23.1116 7.70729 22.8577 7.4618L21.6496 6.2941C24.1845 4.21652 27.3267 2.95489 30.6385 2.68494V4.33832C30.6385 4.68551 30.7812 5.01848 31.0352 5.26398C31.2892 5.50949 31.6336 5.64741 31.9928 5.64741C32.352 5.64741 32.6965 5.50949 32.9505 5.26398C33.2045 5.01848 33.3472 4.68551 33.3472 4.33832V2.68494C36.6595 2.95005 39.8038 4.20762 42.3414 6.28231L41.1347 7.45002C41.009 7.57156 40.9092 7.71585 40.8412 7.87466C40.7731 8.03346 40.7381 8.20366 40.7381 8.37555C40.7381 8.54743 40.7731 8.71764 40.8412 8.87644C40.9092 9.03524 41.009 9.17953 41.1347 9.30107C41.2605 9.42261 41.4097 9.51902 41.574 9.5848C41.7383 9.65058 41.9144 9.68444 42.0923 9.68444C42.2701 9.68444 42.4462 9.65058 42.6105 9.5848C42.7748 9.51902 42.924 9.42261 43.0498 9.30107L44.2579 8.13206C46.4073 10.5827 47.7125 13.6203 47.9918 16.8218H46.2813C45.9221 16.8218 45.5776 16.9597 45.3236 17.2052C45.0696 17.4507 44.9269 17.7837 44.9269 18.1309C44.9269 18.4781 45.0696 18.811 45.3236 19.0565C45.5776 19.302 45.9221 19.44 46.2813 19.44H47.9932C47.7184 22.6415 46.4174 25.6805 44.2714 28.1336L43.0633 26.9672C42.9376 26.8457 42.7883 26.7493 42.624 26.6835C42.4597 26.6177 42.2836 26.5839 42.1058 26.5839C41.928 26.5839 41.7519 26.6177 41.5876 26.6835C41.4233 26.7493 41.274 26.8457 41.1483 26.9672C41.0225 27.0888 40.9228 27.233 40.8547 27.3919C40.7867 27.5507 40.7516 27.7209 40.7516 27.8927C40.7516 28.0646 40.7867 28.2348 40.8547 28.3936C40.9228 28.5524 41.0225 28.6967 41.1483 28.8183L42.3577 29.986C39.8228 32.0635 36.6806 33.3252 33.3689 33.5951V31.9417C33.3689 31.5946 33.2262 31.2616 32.9722 31.0161C32.7182 30.7706 32.3737 30.6327 32.0145 30.6327C31.6553 30.6327 31.3108 30.7706 31.0568 31.0161C30.8028 31.2616 30.6601 31.5946 30.6601 31.9417V33.5951C27.3478 33.3298 24.2037 32.0722 21.6659 29.9978L22.874 28.8314C22.9997 28.7097 23.0994 28.5654 23.1675 28.4065C23.2355 28.2476 23.2705 28.0773 23.2704 27.9054C23.2703 27.7334 23.2352 27.5632 23.1671 27.4043C23.099 27.2455 22.9991 27.1012 22.8733 26.9797C22.7475 26.8581 22.5981 26.7617 22.4337 26.696C22.2693 26.6302 22.0932 26.5964 21.9153 26.5965C21.7374 26.5965 21.5613 26.6305 21.3969 26.6963C21.2326 26.7622 21.0833 26.8587 20.9576 26.9803L19.7495 28.148C17.6001 25.6978 16.2948 22.6607 16.0155 19.4596H17.7261C18.0853 19.4596 18.4297 19.3217 18.6837 19.0762C18.9377 18.8307 19.0804 18.4977 19.0804 18.1505C19.0804 17.8033 18.9377 17.4703 18.6837 17.2248C18.4297 16.9793 18.0853 16.8414 17.7261 16.8414H16.0142C16.2865 13.6394 17.5867 10.5995 19.7332 8.14646Z" fill="#BF9F35"/>
<path d="M25.4458 25.7881C25.6237 25.7883 25.7999 25.7545 25.9642 25.6887C26.1285 25.6229 26.2778 25.5263 26.4034 25.4046L30.1969 21.7378C30.7454 21.9957 31.3522 22.1541 32.0023 22.1541C33.1028 22.1527 34.1578 21.7296 34.9359 20.9774C35.7141 20.2252 36.1519 19.2055 36.1533 18.1418C36.1506 17.3096 35.8798 16.499 35.3787 15.8224C34.8775 15.1458 34.1707 14.6369 33.3566 14.3663V8.22803C33.3566 7.88084 33.2139 7.54787 32.9599 7.30237C32.7059 7.05687 32.3615 6.91895 32.0023 6.91895C31.6431 6.91895 31.2986 7.05687 31.0446 7.30237C30.7906 7.54787 30.6479 7.88084 30.6479 8.22803V14.3663C29.8335 14.6367 29.1265 15.1455 28.6251 15.8221C28.1236 16.4987 27.8526 17.3095 27.8498 18.1418C27.8498 18.7701 28.0137 19.3579 28.2805 19.8881L24.4869 23.5548C24.2973 23.7378 24.1682 23.9711 24.1159 24.2251C24.0636 24.4791 24.0905 24.7424 24.1932 24.9816C24.2959 25.2209 24.4698 25.4252 24.6928 25.5688C24.9158 25.7124 25.1779 25.7887 25.4458 25.7881ZM32.0023 16.745C32.3717 16.7639 32.7196 16.9191 32.9742 17.1786C33.2288 17.4381 33.3708 17.7822 33.3708 18.1398C33.3708 18.4974 33.2288 18.8414 32.9742 19.1009C32.7196 19.3604 32.3717 19.5157 32.0023 19.5346C31.6328 19.5157 31.2849 19.3604 31.0303 19.1009C30.7757 18.8414 30.6338 18.4974 30.6338 18.1398C30.6338 17.7822 30.7757 17.4381 31.0303 17.1786C31.2849 16.9191 31.6328 16.7639 32.0023 16.745Z" fill="#BF9F35"/>
</svg>
