<svg width="22" height="22" viewBox="0 0 22 22" fill="none" xmlns="http://www.w3.org/2000/svg">
<path d="M16.0448 0H5.95521C2.67145 0 0 2.67145 0 5.95521V16.045C0 19.3285 2.67145 22 5.95521 22H16.045C19.3285 22 22 19.3285 22 16.045V5.95521C22 2.67145 19.3285 0 16.0448 0ZM20.7103 16.045C20.7103 18.6174 18.6174 20.7103 16.0448 20.7103H5.95521C3.38263 20.7103 1.28975 18.6174 1.28975 16.045V5.95521C1.28975 3.38263 3.38263 1.28975 5.95521 1.28975H16.045C18.6174 1.28975 20.7103 3.38263 20.7103 5.95521V16.045Z" fill="#BF9F35"/>
<path d="M10.9998 4.985C7.68286 4.985 4.98438 7.68344 4.98438 11.0005C4.98438 14.3175 7.68282 17.0159 10.9998 17.0159C14.3169 17.0159 17.0153 14.3175 17.0153 11.0005C17.0153 7.68344 14.3169 4.985 10.9998 4.985ZM10.9998 15.7262C8.39421 15.7262 6.27413 13.6063 6.27413 11.0005C6.27413 8.39483 8.39421 6.27475 10.9998 6.27475C13.6057 6.27475 15.7256 8.39483 15.7256 11.0005C15.7256 13.6063 13.6057 15.7262 10.9998 15.7262ZM17.1592 2.84863C16.1789 2.84863 15.3817 3.64609 15.3817 4.62612C15.3817 5.60637 16.1789 6.40379 17.1592 6.40379C18.1394 6.40379 18.9368 5.60637 18.9368 4.62617C18.9368 3.64596 18.1394 2.84863 17.1592 2.84863ZM17.1592 5.11391C16.8903 5.11391 16.6714 4.89502 16.6714 4.62612C16.6714 4.3571 16.8903 4.13839 17.1592 4.13839C17.4282 4.13839 17.6471 4.3571 17.6471 4.62612C17.6471 4.89502 17.4282 5.11391 17.1592 5.11391Z" fill="#BF9F35"/>
</svg>
