<svg width="22" height="22" viewBox="0 0 22 22" fill="none" xmlns="http://www.w3.org/2000/svg">
<path d="M17.3709 13.6282C16.9205 13.1592 16.3773 12.9085 15.8015 12.9085C15.2304 12.9085 14.6825 13.1546 14.2135 13.6236L12.7463 15.0862C12.6255 15.0212 12.5048 14.9608 12.3887 14.9005C12.2216 14.8169 12.0637 14.7379 11.929 14.6544C10.5546 13.7814 9.30561 12.6438 8.10765 11.1719C7.52724 10.4383 7.13721 9.82075 6.85397 9.19391C7.23472 8.84566 7.5876 8.48349 7.93121 8.13525C8.06122 8.00523 8.19123 7.87058 8.32124 7.74057C9.29632 6.76549 9.29632 5.50252 8.32124 4.52744L7.05363 3.25983C6.90969 3.11589 6.76111 2.96731 6.62181 2.81872C6.34321 2.53084 6.05069 2.23367 5.74888 1.95508C5.29848 1.50933 4.75987 1.27252 4.19339 1.27252C3.62691 1.27252 3.07901 1.50933 2.61468 1.95508L2.6054 1.96436L1.02669 3.557C0.432356 4.15134 0.0933983 4.87568 0.0191063 5.71611C-0.0923317 7.07194 0.306988 8.3349 0.613442 9.1614C1.36565 11.1905 2.48932 13.071 4.16553 15.0862C6.19927 17.5146 8.64627 19.4323 11.4415 20.7835C12.5094 21.2896 13.9349 21.8886 15.5276 21.9907C15.6251 21.9953 15.7272 22 15.8201 22C16.8927 22 17.7935 21.6146 18.4992 20.8485C18.5039 20.8392 18.5132 20.8345 18.5178 20.8253C18.7593 20.5327 19.0379 20.2681 19.3304 19.9848C19.53 19.7944 19.7343 19.5948 19.934 19.3858C20.3937 18.9076 20.6351 18.3504 20.6351 17.7793C20.6351 17.2035 20.389 16.651 19.9201 16.1866L17.3709 13.6282ZM19.0332 18.5176C19.0286 18.5176 19.0286 18.5222 19.0332 18.5176C18.8521 18.7126 18.6664 18.889 18.4667 19.084C18.1649 19.3719 17.8585 19.6737 17.5706 20.0127C17.1016 20.5142 16.5491 20.751 15.8247 20.751C15.7551 20.751 15.6808 20.751 15.6111 20.7463C14.2321 20.6581 12.9506 20.1195 11.9894 19.6598C9.36133 18.3875 7.05363 16.5813 5.13597 14.2922C3.55262 12.3838 2.49396 10.6194 1.79283 8.72494C1.36101 7.56877 1.20314 6.66798 1.27278 5.81826C1.31922 5.275 1.52816 4.82461 1.91355 4.43922L3.4969 2.85587C3.72442 2.64228 3.96587 2.5262 4.20268 2.5262C4.4952 2.5262 4.73201 2.70264 4.88059 2.85123L4.89452 2.86516C5.17776 3.12982 5.44707 3.40377 5.7303 3.6963C5.87425 3.84488 6.02283 3.99347 6.17141 4.14669L7.43902 5.4143C7.93121 5.90649 7.93121 6.36152 7.43902 6.85371C7.30437 6.98836 7.17436 7.12302 7.0397 7.25303C6.64967 7.65235 6.27821 8.02381 5.87425 8.38598C5.86496 8.39527 5.85567 8.39991 5.85103 8.4092C5.45171 8.80852 5.526 9.19855 5.60958 9.46321L5.62351 9.505C5.95318 10.3036 6.41751 11.0559 7.12328 11.952L7.12792 11.9566C8.40946 13.5353 9.76065 14.7658 11.2511 15.7084C11.4415 15.8291 11.6365 15.9266 11.8222 16.0195C11.9894 16.1031 12.1473 16.182 12.2819 16.2656C12.3005 16.2749 12.3191 16.2888 12.3377 16.2981C12.4955 16.377 12.6441 16.4142 12.7973 16.4142C13.1827 16.4142 13.4242 16.1727 13.5031 16.0938L15.0911 14.5058C15.249 14.3479 15.4997 14.1575 15.7922 14.1575C16.0801 14.1575 16.3169 14.3386 16.4609 14.4965L16.4701 14.5058L19.0286 17.0642C19.5068 17.5378 19.5068 18.0254 19.0332 18.5176ZM11.8733 5.23321C13.0899 5.43752 14.195 6.01328 15.0772 6.8955C15.9594 7.77771 16.5305 8.88281 16.7395 10.0993C16.7905 10.4058 17.0552 10.6194 17.357 10.6194C17.3941 10.6194 17.4267 10.6147 17.4638 10.6101C17.8074 10.5544 18.0349 10.2294 17.9792 9.88575C17.7285 8.41384 17.032 7.07194 15.9687 6.00864C14.9054 4.94533 13.5635 4.24884 12.0916 3.99811C11.748 3.94239 11.4276 4.16991 11.3672 4.50887C11.3068 4.84782 11.5297 5.17749 11.8733 5.23321ZM21.9585 9.70466C21.5452 7.28089 20.403 5.07534 18.6478 3.32019C16.8927 1.56505 14.6871 0.422806 12.2634 0.0095565C11.9244 -0.0508058 11.604 0.181357 11.5437 0.520314C11.4879 0.863915 11.7155 1.1843 12.0591 1.24466C14.2228 1.61148 16.1962 2.63764 17.7656 4.20241C19.335 5.77183 20.3565 7.74521 20.7234 9.90897C20.7744 10.2154 21.0391 10.429 21.3409 10.429C21.3781 10.429 21.4106 10.4244 21.4477 10.4197C21.7867 10.3686 22.0188 10.0436 21.9585 9.70466Z" fill="#BF9F35"/>
</svg>
