<svg width="21" height="24" viewBox="0 0 21 24" fill="none" xmlns="http://www.w3.org/2000/svg">
<path d="M20.6073 11.6868C20.6598 11.7605 20.6946 11.8453 20.709 11.9346C20.7234 12.0239 20.7169 12.1154 20.6902 12.2018C20.6635 12.2882 20.6171 12.3673 20.5548 12.4329C20.4925 12.4986 20.4159 12.5489 20.331 12.5801C19.42 13.2259 14.5447 16.8856 10.8939 23.6181C10.8596 23.7078 10.8042 23.7879 10.7324 23.8516C10.6606 23.9153 10.5745 23.9607 10.4814 23.9841C10.4327 23.9955 10.3829 24.0008 10.3329 24C10.235 24.0024 10.1381 23.9791 10.052 23.9322C9.96596 23.8854 9.89376 23.8167 9.84267 23.733C9.81486 23.6914 9.79267 23.6462 9.77668 23.5987C9.30294 22.6795 6.16351 16.8685 0.358398 12.5471C0.252024 12.5017 0.161336 12.4261 0.0976327 12.3296C0.0339292 12.2331 2.57089e-05 12.12 0.000145333 12.0044V11.9914C-0.00256581 11.8693 0.0327126 11.7493 0.101108 11.6481C0.169504 11.5469 0.267642 11.4694 0.381968 11.4264C1.13559 10.8996 6.06746 7.28877 9.78905 0.459573C9.80966 0.367544 9.85209 0.281821 9.91278 0.209635C9.97347 0.137449 10.0506 0.0809174 10.1377 0.0448096C10.2249 0.00870186 10.3194 -0.00592302 10.4134 0.00216877C10.5073 0.0102606 10.5979 0.0408316 10.6776 0.091303C10.8031 0.162011 10.8992 0.2775 10.9457 0.417148C11.3069 1.12953 14.4446 7.08607 20.397 11.4959C20.4817 11.5413 20.554 11.6068 20.6073 11.6868Z" fill="#BF9F35"/>
</svg>
