<svg width="23" height="18" viewBox="0 0 23 18" fill="none" xmlns="http://www.w3.org/2000/svg">
<path fill-rule="evenodd" clip-rule="evenodd" d="M21.5337 12.7568C21.5337 14.7835 19.828 16.4295 17.7337 16.4295H5.26636C3.17206 16.4295 1.46626 14.7834 1.46626 12.7568V5.08983C1.46579 4.43664 1.64685 3.79532 1.9905 3.23288L8.07379 9.11231C8.9839 9.9945 10.2027 10.4806 11.5013 10.4806C12.7973 10.4806 14.016 9.9945 14.9262 9.11231L21.0095 3.23288C21.3531 3.79531 21.5342 4.43664 21.5337 5.08983V12.7568H21.5337ZM17.7336 1.41712H5.26636C4.4015 1.41712 3.60313 1.70002 2.96448 2.17069L9.10898 8.11186C9.74502 8.72395 10.5939 9.06347 11.5013 9.06347C12.4061 9.06347 13.255 8.72395 13.891 8.11186L20.0355 2.17069C19.3969 1.70002 18.5986 1.41712 17.7336 1.41712ZM17.7336 0H5.26636C2.36308 0 0 2.28389 0 5.08988V12.7568C0 15.5654 2.36308 17.8467 5.26636 17.8467H17.7336C20.6369 17.8467 23 15.5654 23 12.7568V5.08983C23 2.28384 20.6369 0 17.7336 0Z" fill="#BF9F35"/>
</svg>
