<svg width="69" height="64" viewBox="0 0 69 64" fill="none" xmlns="http://www.w3.org/2000/svg">
<path d="M55.9289 50.6481C55.9687 50.8957 55.8814 51.1456 55.6861 51.3428C55.4909 51.54 55.2038 51.6684 54.8879 51.6997C48.352 52.3456 42.7784 53.4737 39.1937 54.8761C38.9088 54.9876 38.5791 55.0058 38.2771 54.9267C37.9751 54.8476 37.7255 54.6777 37.5833 54.4543C37.5129 54.3437 37.4709 54.2233 37.4599 54.1C37.4488 53.9767 37.4688 53.8529 37.5188 53.7357C37.5688 53.6184 37.6477 53.51 37.7511 53.4167C37.8545 53.3234 37.9804 53.247 38.1215 53.1918C41.942 51.6971 47.7898 50.5039 54.5873 49.8321C55.2446 49.7673 55.846 50.1323 55.9289 50.6481ZM54.5876 43.8219C47.7888 44.4939 41.9402 45.6917 38.1193 47.1948C37.8347 47.3068 37.6185 47.5028 37.5183 47.7397C37.418 47.9766 37.4419 48.2351 37.5848 48.4581C37.6847 48.6143 37.838 48.7456 38.0277 48.8373C38.2174 48.929 38.4359 48.9775 38.6587 48.9774C38.8455 48.9774 39.0296 48.943 39.1963 48.8772C42.7799 47.4675 48.3524 46.3355 54.8879 45.6896C55.2038 45.6583 55.4909 45.5299 55.6861 45.3327C55.8814 45.1355 55.9687 44.8856 55.9289 44.638C55.846 44.1221 55.2446 43.7573 54.5876 43.8219ZM54.5876 37.8113C47.7949 38.4824 41.946 39.6835 38.118 41.1933C37.8382 41.3075 37.627 41.5036 37.5301 41.739C37.4332 41.9743 37.4584 42.2302 37.6002 42.4511C37.742 42.672 37.9891 42.8404 38.2879 42.9196C38.5868 42.9989 38.9134 42.9828 39.1972 42.8748C42.7872 41.4588 48.3595 40.3239 54.8877 39.6788C55.045 39.6642 55.197 39.6252 55.3349 39.5643C55.4729 39.5034 55.5942 39.4217 55.6917 39.3239C55.7892 39.2261 55.8611 39.1141 55.9032 38.9945C55.9453 38.8748 55.9568 38.7498 55.937 38.6266C55.9172 38.5034 55.8665 38.3846 55.7878 38.2768C55.7092 38.1691 55.6041 38.0746 55.4787 37.9988C55.3533 37.923 55.21 37.8675 55.0571 37.8353C54.9041 37.8031 54.7446 37.7949 54.5876 37.8113ZM30.413 53.1918C26.5925 51.6971 20.7447 50.5039 13.9472 49.8321C13.6347 49.8063 13.3217 49.8775 13.0753 50.0305C12.829 50.1835 12.6691 50.4061 12.6297 50.6506C12.5904 50.895 12.6749 51.1418 12.865 51.3379C13.0551 51.5341 13.3358 51.664 13.6467 51.6998C20.1827 52.3457 25.7562 53.4739 29.3409 54.8762C29.507 54.9414 29.6903 54.9754 29.8761 54.9755C30.1466 54.9755 30.4092 54.9038 30.6214 54.7722C30.8335 54.6405 30.9827 54.4566 31.0448 54.2502C31.107 54.0437 31.0784 53.8269 30.9637 53.6348C30.849 53.4427 30.655 53.2866 30.413 53.1918ZM30.4154 47.1948C26.5944 45.6917 20.7458 44.494 13.947 43.8219C13.6311 43.7908 13.3124 43.8593 13.0609 44.0123C12.8093 44.1653 12.6456 44.3904 12.6056 44.638C12.5658 44.8856 12.6531 45.1355 12.8483 45.3327C13.0435 45.5299 13.3307 45.6583 13.6466 45.6896C20.182 46.3355 25.7548 47.4675 29.3382 48.8772C29.5049 48.943 29.689 48.9774 29.8757 48.9774C30.0986 48.9775 30.3171 48.929 30.5068 48.8373C30.6964 48.7456 30.8498 48.6143 30.9497 48.4581C31.0205 48.3477 31.0629 48.2274 31.0743 48.1041C31.0858 47.9808 31.0662 47.857 31.0165 47.7397C30.9669 47.6224 30.8883 47.5138 30.7851 47.4204C30.682 47.3269 30.5563 47.2502 30.4154 47.1948ZM30.4165 41.1934C26.5888 39.6836 20.7398 38.4824 13.9469 37.8114C13.2896 37.7472 12.6885 38.1118 12.6056 38.6276C12.5658 38.8753 12.6531 39.1252 12.8484 39.3224C13.0436 39.5195 13.3308 39.6479 13.6467 39.6791C20.175 40.3241 25.7474 41.459 29.3372 42.8751C29.5043 42.9412 29.6888 42.9757 29.8759 42.9757C30.1461 42.9757 30.4085 42.9043 30.6205 42.7729C30.8325 42.6416 30.9819 42.4581 31.0444 42.252C31.1069 42.0459 31.0789 41.8293 30.965 41.6372C30.851 41.4451 30.6578 41.2887 30.4165 41.1934ZM68.5345 40.3221V48.135C68.5345 48.6549 67.9971 49.0762 67.3339 49.0762H64.7191V56.2498C64.7191 56.4951 64.5969 56.7308 64.3786 56.9065C64.1602 57.0822 63.863 57.1842 63.5502 57.1906C49.7222 57.4774 36.8285 60.3128 35.3947 63.3825C35.2213 63.7533 34.771 64 34.2672 64C33.7635 64 33.3132 63.7533 33.1398 63.3825C31.7059 60.3128 18.8122 57.4774 4.98428 57.1906C4.67147 57.1842 4.37424 57.0822 4.15591 56.9065C3.93757 56.7308 3.81538 56.4951 3.81537 56.2498V49.0762H1.20061C1.04293 49.0762 0.886803 49.0519 0.74113 49.0046C0.595456 48.9573 0.463094 48.888 0.351603 48.8006C0.240112 48.7132 0.151677 48.6094 0.0913481 48.4952C0.0310194 48.381 -2.10164e-05 48.2586 1.06758e-08 48.135V40.3221C1.06758e-08 39.8022 0.537392 39.3809 1.20061 39.3809H3.81537V32.2073C3.81537 31.9534 3.94615 31.7102 4.17843 31.533C4.41023 31.3558 4.72623 31.2571 5.04783 31.2665C8.17501 31.3313 11.3643 31.5339 14.4351 31.851C15.5557 29.656 17.3907 27.731 19.7894 26.2507C21.6802 25.0838 23.8295 24.2531 26.1167 23.7919C23.4551 22.0131 21.7649 19.3834 21.7649 16.4518C21.7649 16.0352 21.8032 15.6191 21.8714 15.207C21.7438 15.1188 21.6416 15.0103 21.5715 14.8888C21.5015 14.7673 21.4652 14.6355 21.4651 14.5022V9.14828L16.5799 7.52594C16.3629 7.45375 16.1777 7.33308 16.0476 7.17897C15.9175 7.02486 15.8481 6.84413 15.8481 6.65931C15.8481 6.47449 15.9175 6.29376 16.0476 6.13965C16.1777 5.98554 16.3629 5.86486 16.5799 5.79267L33.799 0.0744511C33.9472 0.0253169 34.1065 0 34.2674 0C34.4283 0 34.5876 0.0253169 34.7358 0.0744511L51.9547 5.79267C52.1718 5.86482 52.357 5.98547 52.4873 6.13959C52.6175 6.2937 52.6869 6.47446 52.6869 6.65931V10.8354L54.4935 11.7984C54.6553 11.8847 54.7878 12.0007 54.8794 12.1364C54.971 12.2721 55.0189 12.4232 55.0188 12.5767V16.4415C55.0189 16.6159 54.9572 16.7868 54.8406 16.9352C54.724 17.0837 54.5571 17.2038 54.3585 17.2822C54.1599 17.3607 53.9374 17.3943 53.7158 17.3794C53.4942 17.3645 53.2823 17.3017 53.1036 17.1979L51.4862 16.2588L49.8687 17.1979C49.69 17.3015 49.4781 17.3643 49.2566 17.3791C49.0351 17.3939 48.8127 17.3602 48.6141 17.2818C48.4156 17.2034 48.2487 17.0834 48.1321 16.935C48.0154 16.7866 47.9536 16.6158 47.9535 16.4415V12.5767C47.9535 12.4232 48.0014 12.2721 48.0929 12.1364C48.1845 12.0007 48.317 11.8847 48.4789 11.7984L50.2854 10.8354V8.08024L47.0691 9.14828V14.5022C47.069 14.6355 47.0327 14.7673 46.9626 14.8888C46.8926 15.0103 46.7904 15.1188 46.6628 15.207C46.731 15.6189 46.7692 16.0349 46.7692 16.4518C46.7692 19.3834 45.0793 22.0132 42.4174 23.7919C44.7048 24.2529 46.8539 25.0838 48.7448 26.2507C51.1434 27.731 52.9783 29.656 54.099 31.851C57.1698 31.5338 60.3591 31.3312 63.4862 31.2665C63.6465 31.2627 63.8062 31.2844 63.9556 31.3302C64.1049 31.376 64.241 31.445 64.3556 31.533C64.4705 31.6207 64.5618 31.7255 64.6241 31.8413C64.6865 31.9571 64.7186 32.0816 64.7186 32.2073V39.3809H67.3334C67.4911 39.3809 67.6473 39.4052 67.793 39.4525C67.9387 39.4997 68.0711 39.5691 68.1827 39.6565C68.2942 39.7439 68.3827 39.8476 68.443 39.9618C68.5034 40.0761 68.5345 40.1985 68.5345 40.3221ZM52.6178 13.0749L51.4865 12.4718L50.3552 13.0749V14.5732L50.7721 14.3312C50.9788 14.211 51.2293 14.1462 51.4867 14.1462C51.744 14.1462 51.9945 14.211 52.2013 14.3312L52.6181 14.5732V13.0749H52.6178ZM20.1262 6.65931L34.2674 11.3554L45.5744 7.60049H37.4801C36.8168 7.60049 36.2795 7.17921 36.2795 6.65931C36.2795 6.1394 36.8168 5.71813 37.4801 5.71813H45.5742L34.2672 1.96321L20.1262 6.65931ZM23.8663 9.94578V13.8788C26.7999 14.7972 30.4581 15.2992 34.2674 15.2992C38.0767 15.2992 41.7347 14.7972 44.6683 13.8788V9.94578L34.7358 13.2443C34.5876 13.2935 34.4283 13.3188 34.2674 13.3188C34.1065 13.3188 33.9472 13.2935 33.799 13.2443L23.8663 9.94578ZM34.2674 24.2617C39.8371 24.2617 44.3685 20.7583 44.3685 16.452C44.3685 16.2925 44.3602 16.1332 44.3479 15.9742C41.3716 16.7579 37.8719 17.1816 34.2676 17.1816C30.663 17.1816 27.1635 16.7579 24.1871 15.9741C24.174 16.1331 24.1671 16.2924 24.1665 16.4518C24.1661 20.7583 28.6975 24.2617 34.2674 24.2617ZM16.8884 32.1325C19.4766 32.4598 21.9404 32.8683 24.1564 33.3484C29.1301 34.4257 32.5163 35.7404 34.2672 37.2705C36.0182 35.7406 39.4044 34.4257 44.3781 33.3484C46.5941 32.8683 49.0579 32.4598 51.6463 32.1325C49.4605 28.2767 44.7946 25.6441 39.381 25.2927C37.8188 25.838 36.0888 26.1439 34.2674 26.1439C32.446 26.1439 30.716 25.8379 29.1538 25.2927C23.74 25.6441 19.0741 28.2767 16.8884 32.1325ZM2.40121 47.1938H4.90328C6.98897 47.1938 8.68599 45.8636 8.68599 44.2286C8.68599 42.5936 6.98897 41.2633 4.90328 41.2633H2.40121V47.1938ZM33.0666 60.4491V39.2005C31.3675 36.2763 19.361 33.5976 6.21658 33.1804V39.4921C8.99751 39.9656 11.0872 41.9089 11.0872 44.2286C11.0872 46.5483 8.99751 48.4916 6.21658 48.965V55.3394C12.5286 55.5372 19.0054 56.2752 24.1562 57.3908C28.1675 58.2596 31.1457 59.2831 33.0666 60.4491ZM62.3179 55.3394V48.965C59.537 48.4915 57.4473 46.5482 57.4473 44.2286C57.4473 41.9089 59.537 39.9655 62.3179 39.4921V33.1804C49.1736 33.5975 37.1671 36.2763 35.4678 39.2005V60.4492C37.3888 59.2832 40.367 58.2597 44.3781 57.3908C49.529 56.2752 56.0059 55.5372 62.3179 55.3394ZM66.1333 41.2633H63.6312C61.5455 41.2633 59.8485 42.5936 59.8485 44.2286C59.8485 45.8636 61.5455 47.1938 63.6312 47.1938H66.1333V41.2633Z" fill="#BF9F35"/>
</svg>
