<svg width="64" height="64" viewBox="0 0 64 64" fill="none" xmlns="http://www.w3.org/2000/svg">
<path d="M10.141 9.18074L17.4107 11.1287V20.3773C17.4107 20.5307 17.4505 20.6816 17.5261 20.8151C17.6016 20.9486 17.7105 21.0603 17.8421 21.1393C21.9864 23.6269 26.8768 24.9418 31.9849 24.9418C37.093 24.9418 41.9834 23.6269 46.1277 21.1393C46.2593 21.0604 46.3682 20.9487 46.4438 20.8151C46.5194 20.6816 46.5591 20.5308 46.5591 20.3773V11.1287L51.603 9.77718V14.7502C50.2534 15.1374 49.2626 16.3818 49.2626 17.8542C49.2626 18.766 49.643 19.5901 50.2528 20.1779L49.9642 20.7981C49.5977 21.5855 49.427 22.3567 49.427 23.2253V26.8971C49.427 28.0896 50.3972 29.0597 51.5897 29.0597H53.5586C54.7511 29.0597 55.7213 28.0896 55.7213 26.8971V23.2253C55.7213 22.3568 55.5506 21.5855 55.1841 20.7981L54.8428 20.0648C55.3868 19.4865 55.7213 18.7089 55.7213 17.8542C55.7213 16.3818 54.7304 15.1372 53.3807 14.7502V9.30087L53.8284 9.18087C54.6333 8.96525 55.1741 8.26063 55.1741 7.4275C55.1741 6.59436 54.6334 5.88986 53.8284 5.67399L33.3537 0.187712C32.4198 -0.0625706 31.5497 -0.0625706 30.6156 0.187712L10.141 5.67387C9.33638 5.88961 8.79555 6.59423 8.79555 7.42737C8.79555 8.2605 9.33625 8.96513 10.141 9.18074ZM53.9436 26.8968C53.9436 27.1055 53.7674 27.2817 53.5587 27.2817H51.5898C51.3812 27.2817 51.2049 27.1055 51.2049 26.8968V23.225C51.2049 22.6085 51.3159 22.1069 51.576 21.548L51.8246 21.0136C52.3149 21.1172 52.8226 21.1053 53.3075 20.9788L53.5724 21.5481C53.8325 22.1071 53.9435 22.6085 53.9435 23.2251V26.897L53.9436 26.8968ZM53.9436 17.854C53.9436 18.6545 53.2924 19.3057 52.4919 19.3057C51.6914 19.3057 51.0402 18.6545 51.0402 17.854C51.0402 17.0535 51.6914 16.4024 52.4919 16.4024C53.2924 16.4024 53.9436 17.0535 53.9436 17.854ZM44.7813 19.868C41.0065 22.026 36.5938 23.1642 31.9849 23.1642C27.376 23.1642 22.9632 22.026 19.1885 19.868V11.605L30.6157 14.6669C31.0828 14.7921 31.5338 14.8547 31.9849 14.8547C32.4359 14.8547 32.8869 14.7921 33.3538 14.6669L44.7813 11.605V19.868ZM10.6011 7.39092L31.0758 1.90477C31.7044 1.73639 32.265 1.73626 32.8936 1.90477L53.3684 7.39092C53.3906 7.39689 53.3964 7.40438 53.3964 7.42724C53.3964 7.4501 53.3907 7.45759 53.3685 7.46356L32.8936 12.9497C32.2651 13.1182 31.7045 13.1181 31.0758 12.9497L10.601 7.46356C10.5789 7.45759 10.5732 7.45022 10.5732 7.42724C10.5732 7.40426 10.5789 7.39689 10.6011 7.39092ZM63.9136 53.8116C63.9132 53.8051 63.9128 53.7987 63.9123 53.7923C63.7844 52.1281 63.3456 51.3346 62.1732 50.6471C61.4202 50.2056 60.2477 49.8851 59.0028 49.5667L57.4871 49.1938C57.7149 48.9665 57.9214 48.7189 58.1041 48.454C59.2641 46.7734 59.4713 44.4505 58.6078 42.8052C57.8541 41.3694 56.4207 40.5786 54.5716 40.5786C53.8895 40.5786 53.2645 40.6869 52.7088 40.8948C52.6985 40.0826 52.6711 39.2707 52.6265 38.4597C52.4987 36.7956 52.0598 36.002 50.8875 35.3148C50.1344 34.8731 48.9619 34.5526 47.717 34.2341L46.2013 33.8613C46.4291 33.634 46.6357 33.3863 46.8185 33.1214C47.9785 31.4409 48.1856 29.118 47.322 27.4727C46.5683 26.0369 45.1351 25.2461 43.2859 25.2461C41.4367 25.2461 40.0033 26.0369 39.2497 27.4727C38.3862 29.118 38.5933 31.4409 39.7532 33.1214C39.936 33.3863 40.1425 33.6339 40.3702 33.8613L38.8465 34.236C37.6097 34.5524 36.4372 34.873 35.6842 35.3145C34.5119 36.0017 34.073 36.7954 33.945 38.4596L33.9438 38.4789C33.8999 39.2835 33.8729 40.0889 33.8627 40.8946C33.3071 40.6868 32.682 40.5784 32 40.5784C31.2961 40.5784 30.6529 40.6937 30.0841 40.915C30.0742 40.1025 30.0471 39.2903 30.0029 38.4789L30.0016 38.4596C29.8736 36.7955 29.4348 36.0019 28.2625 35.3146C27.5094 34.8731 26.337 34.5525 25.0921 34.234L23.5765 33.8612C23.8042 33.6339 24.0108 33.3862 24.1935 33.1213C25.3535 31.4407 25.5606 29.1179 24.6971 27.4726C23.9434 26.0367 22.51 25.2459 20.6609 25.2459C18.8117 25.2459 17.3783 26.0368 16.6248 27.4726C15.7612 29.1179 15.9683 31.4408 17.1283 33.1213C17.3111 33.3861 17.5176 33.6338 17.7453 33.8612L16.2216 34.2359C14.9848 34.5522 13.8123 34.8729 13.0593 35.3144C11.8869 36.0016 11.448 36.7953 11.3201 38.4595L11.3189 38.4787C11.2753 39.2772 11.2483 40.0766 11.2381 40.8762C10.6956 40.6809 10.0893 40.5783 9.42857 40.5783C7.57942 40.5783 6.14601 41.3692 5.39236 42.805C4.52886 44.4503 4.73585 46.7732 5.89585 48.4538C6.07863 48.7186 6.28516 48.9663 6.51287 49.1937L4.98931 49.5686C3.75235 49.885 2.57977 50.2056 1.82688 50.647C0.654553 51.3344 0.215694 52.128 0.0878202 53.7921L0.0865504 53.8114C-0.0617679 56.5043 0.00743876 58.9806 0.0946773 61.0476C0.126535 61.8424 0.465093 62.5939 1.03926 63.1443C1.61343 63.6947 2.37854 64.0013 3.17393 63.9996H15.6831C16.4785 64.0014 17.2436 63.6948 17.8178 63.1444C18.392 62.5939 18.7305 61.8424 18.7623 61.0476C18.8496 58.9806 18.9188 56.5045 18.7705 53.8114L18.7692 53.7921C18.6412 52.128 18.2025 51.3345 17.0301 50.6471C16.2772 50.2056 15.1047 49.8851 13.8598 49.5667L12.3441 49.1938C12.5719 48.9665 12.7784 48.7189 12.9612 48.454C12.9861 48.4178 13.008 48.3799 13.0321 48.3432C13.4589 48.5562 13.9293 48.6671 14.4062 48.6672H26.9154C27.4341 48.6672 27.9306 48.5394 28.3709 48.3034C28.4032 48.3536 28.4334 48.405 28.4673 48.454C28.6501 48.7189 28.8566 48.9666 29.0843 49.194L27.5607 49.5688C26.3238 49.8853 25.1512 50.2059 24.3983 50.6473C23.226 51.3346 22.7871 52.1283 22.6592 53.7924L22.658 53.8117C22.5097 56.5047 22.5789 58.9809 22.6661 61.0479C22.698 61.8427 23.0365 62.5941 23.6107 63.1446C24.1849 63.695 24.95 64.0016 25.7454 63.9999H38.2545C39.0499 64.0016 39.815 63.695 40.3892 63.1446C40.9634 62.5942 41.3019 61.8427 41.3338 61.0479C41.421 58.9809 41.4902 56.5047 41.3419 53.8117L41.3406 53.7924C41.2126 52.1283 40.7739 51.3348 39.6016 50.6473C38.8485 50.2058 37.676 49.8853 36.4311 49.5668L34.9156 49.194C35.1433 48.9666 35.3498 48.719 35.5326 48.4542C35.5619 48.4116 35.588 48.3669 35.6161 48.3236C36.0535 48.5498 36.5388 48.6677 37.0311 48.6674H49.5403C50.0412 48.6674 50.524 48.5466 50.9553 48.3236C50.9835 48.3669 51.0095 48.4116 51.0388 48.4542C51.2216 48.719 51.4281 48.9667 51.6559 49.1941L50.1322 49.5689C48.8953 49.8854 47.7228 50.2059 46.9699 50.6474C45.7975 51.3348 45.3587 52.1284 45.2308 53.7925L45.2295 53.8118C45.0812 56.5048 45.1504 58.981 45.2377 61.048C45.2695 61.8428 45.608 62.5943 46.1822 63.1448C46.7564 63.6952 47.5215 64.0017 48.3169 64H60.8261C61.6215 64.0017 62.3866 63.6952 62.9608 63.1447C63.5349 62.5943 63.8735 61.8428 63.9053 61.048C63.9926 58.9813 64.0618 56.5054 63.9134 53.8118L63.9136 53.8116ZM57.0337 43.6315C57.594 44.6993 57.429 46.3028 56.6412 47.4443C56.094 48.237 55.3717 48.6771 54.6024 48.6882H54.5397C53.7721 48.6774 53.0494 48.2373 52.502 47.4443C51.714 46.3028 51.5491 44.6993 52.1094 43.6315C52.5535 42.7854 53.3818 42.3565 54.5716 42.3565C55.7613 42.3565 56.5896 42.7854 57.0337 43.6315ZM40.8238 28.299C41.2679 27.4529 42.0962 27.0239 43.2859 27.0239C44.4756 27.0239 45.3039 27.4529 45.7479 28.299C46.3084 29.3669 46.1433 30.9703 45.3555 32.1118C44.8083 32.9046 44.086 33.3446 43.3168 33.3557H43.254C42.4863 33.345 41.7636 32.9048 41.2163 32.1116C40.4284 30.9702 40.2634 29.3668 40.8238 28.299ZM34.4622 43.6315C35.0227 44.6994 34.8577 46.3028 34.0697 47.4443C33.5225 48.237 32.8003 48.6771 32.031 48.6882H31.9683C31.2006 48.6775 30.4778 48.2373 29.9305 47.4443C29.1426 46.3028 28.9776 44.6993 29.538 43.6315C29.9821 42.7854 30.8104 42.3565 32.0001 42.3565C33.1898 42.3565 34.0182 42.7854 34.4622 43.6315ZM18.199 28.299C18.6431 27.4529 19.4714 27.0239 20.661 27.0239C21.8506 27.0239 22.6791 27.4529 23.1231 28.299C23.6836 29.3668 23.5186 30.9703 22.7306 32.1118C22.1834 32.9045 21.4613 33.3446 20.692 33.3557H20.6293C19.8616 33.345 19.139 32.9048 18.5915 32.1116C17.8036 30.9702 17.6386 29.3666 18.1992 28.2989L18.199 28.299ZM6.96659 43.6315C7.41065 42.7854 8.2391 42.3565 9.4287 42.3565C10.6183 42.3565 11.4467 42.7854 11.8908 43.6315C12.4513 44.6994 12.2862 46.3028 11.4983 47.4443C10.951 48.2371 10.2321 48.6778 9.4593 48.6882H9.39695C8.62933 48.6775 7.90653 48.2373 7.35923 47.4443C6.57128 46.3028 6.40633 44.6993 6.96672 43.6314L6.96659 43.6315ZM10.7765 50.6393L13.4273 51.2912C14.2654 51.5055 15.5318 51.8296 16.1311 52.181C16.6609 52.4916 16.8999 52.6814 16.9961 53.9191C17.1395 56.5325 17.0717 58.9512 16.9863 60.9731C16.9729 61.3094 16.8296 61.6275 16.5866 61.8604C16.3436 62.0933 16.0198 62.223 15.6832 62.2222H15.4631V57.3799C15.4631 57.1441 15.3695 56.9181 15.2028 56.7514C15.0361 56.5847 14.81 56.491 14.5743 56.491C14.3385 56.491 14.1124 56.5847 13.9457 56.7514C13.779 56.9181 13.6854 57.1441 13.6854 57.3799V62.2222H5.17217V57.3799C5.17217 57.2632 5.14917 57.1476 5.1045 57.0397C5.05983 56.9319 4.99436 56.8339 4.91182 56.7514C4.82927 56.6688 4.73128 56.6033 4.62344 56.5587C4.51559 56.514 4.4 56.491 4.28327 56.491C4.16654 56.491 4.05095 56.514 3.94311 56.5587C3.83526 56.6033 3.73727 56.6688 3.65473 56.7514C3.57219 56.8339 3.50671 56.9319 3.46204 57.0397C3.41737 57.1476 3.39438 57.2632 3.39438 57.3799V62.2222H3.17431C2.83772 62.223 2.51394 62.0933 2.27096 61.8603C2.02798 61.6274 1.88469 61.3094 1.8712 60.9731C1.78586 58.9514 1.71792 56.5327 1.86142 53.9196C1.95767 52.6817 2.19666 52.4917 2.72644 52.1811C3.32568 51.8297 4.59223 51.5057 5.4222 51.2934L8.08075 50.6394C8.54234 50.5259 8.97257 50.4689 9.40203 50.4666C9.40927 50.4666 9.41638 50.4673 9.42362 50.4673H9.43187C9.43949 50.4673 9.44698 50.4666 9.45448 50.4666C9.88432 50.4689 10.3147 50.5259 10.7765 50.6395V50.6393ZM26.9155 46.8897H26.6955V42.0474C26.6955 41.8116 26.6018 41.5855 26.4351 41.4188C26.2684 41.2522 26.0423 41.1585 25.8066 41.1585C25.5708 41.1585 25.3447 41.2522 25.178 41.4188C25.0113 41.5855 24.9177 41.8116 24.9177 42.0474V46.8897H16.4044V42.0474C16.4044 41.8116 16.3107 41.5855 16.144 41.4188C15.9773 41.2522 15.7512 41.1585 15.5155 41.1585C15.2797 41.1585 15.0536 41.2522 14.8869 41.4188C14.7202 41.5855 14.6266 41.8116 14.6266 42.0474V46.8897H14.4065C14.18 46.8897 13.9613 46.8298 13.7685 46.7215C14.1457 45.3813 14.0573 43.9341 13.4649 42.8055C13.337 42.562 13.1851 42.3319 13.0114 42.1186C13.0048 40.8767 13.0315 39.7174 13.0936 38.587C13.1899 37.3492 13.4288 37.1591 13.9586 36.8485C14.5581 36.497 15.8244 36.173 16.6544 35.9607L19.3132 35.3069C19.7745 35.1934 20.2048 35.1364 20.6343 35.1341C20.6416 35.1341 20.6487 35.1348 20.6559 35.1348H20.6642C20.6718 35.1348 20.6793 35.1341 20.6869 35.1341C21.1169 35.1364 21.5474 35.1935 22.009 35.307L24.6598 35.9588C25.4977 36.1732 26.7642 36.4972 27.3635 36.8487C27.8932 37.1592 28.1322 37.3492 28.2285 38.5868C28.2928 39.758 28.3192 40.9626 28.3097 42.2572C28.1804 42.4308 28.0648 42.6142 27.964 42.8058C27.3799 43.9187 27.2873 45.3412 27.6465 46.6656C27.431 46.8122 27.1764 46.8905 26.9158 46.8901L26.9155 46.8897ZM33.3479 50.6393L35.9986 51.2912C36.8367 51.5055 38.1031 51.8296 38.7024 52.181C39.2322 52.4916 39.4711 52.6814 39.5674 53.9191C39.7108 56.5325 39.643 58.9512 39.5576 60.973C39.5442 61.3093 39.4009 61.6274 39.1579 61.8603C38.9149 62.0932 38.5911 62.2229 38.2545 62.2221H38.0344V57.3798C38.0344 57.144 37.9408 56.9179 37.7741 56.7512C37.6074 56.5845 37.3813 56.4909 37.1456 56.4909C36.9098 56.4909 36.6837 56.5845 36.517 56.7512C36.3503 56.9179 36.2567 57.144 36.2567 57.3798V62.2221H27.7433V57.3798C27.7433 57.144 27.6497 56.9179 27.483 56.7512C27.3163 56.5845 27.0902 56.4909 26.8544 56.4909C26.6187 56.4909 26.3926 56.5845 26.2259 56.7512C26.0592 56.9179 25.9656 57.144 25.9656 57.3798V62.2221H25.7455C25.4089 62.2228 25.0851 62.0931 24.8421 61.8602C24.5992 61.6273 24.4559 61.3093 24.4424 60.973C24.357 58.9512 24.2891 56.5324 24.4326 53.9191C24.5288 52.6815 24.7678 52.4916 25.2976 52.181C25.8969 51.8296 27.1634 51.5056 27.9934 51.2932L30.6521 50.6393C31.1136 50.5257 31.5437 50.4687 31.9733 50.4664C31.9806 50.4664 31.9878 50.4672 31.995 50.4672H32.0033C32.0109 50.4672 32.0184 50.4664 32.0259 50.4664C32.4557 50.4686 32.8862 50.5257 33.3481 50.6393H33.3479ZM49.5403 46.8897H49.3202V42.0474C49.3202 41.8116 49.2266 41.5855 49.0599 41.4188C48.8932 41.2522 48.6671 41.1585 48.4313 41.1585C48.1956 41.1585 47.9695 41.2522 47.8028 41.4188C47.6361 41.5855 47.5424 41.8116 47.5424 42.0474V46.8897H39.0291V42.0474C39.0291 41.8116 38.9355 41.5855 38.7688 41.4188C38.6021 41.2522 38.376 41.1585 38.1402 41.1585C37.9045 41.1585 37.6784 41.2522 37.5117 41.4188C37.345 41.5855 37.2513 41.8116 37.2513 42.0474V46.8897H37.0313C36.7853 46.8897 36.5495 46.8213 36.3463 46.6957C36.7151 45.3628 36.6249 43.9268 36.0363 42.8055C35.9217 42.5881 35.788 42.3814 35.6367 42.1877C35.6287 40.9204 35.6553 39.7385 35.7184 38.5871C35.8146 37.349 36.0536 37.1592 36.5834 36.8486C37.1829 36.4971 38.4492 36.1732 39.2792 35.9609L41.938 35.307C42.3993 35.1935 42.8295 35.1365 43.2591 35.1342C43.2663 35.1342 43.2736 35.135 43.2808 35.135H43.2891C43.2967 35.135 43.3042 35.1342 43.3117 35.1342C43.7416 35.1364 44.1721 35.1935 44.6337 35.307L47.2845 35.9588C48.1225 36.1732 49.3889 36.4972 49.9884 36.8487C50.5182 37.1593 50.7572 37.3492 50.8534 38.5872C50.9167 39.7387 50.9432 40.9205 50.9351 42.1878C50.7839 42.3815 50.6501 42.5882 50.5355 42.8056C49.9469 43.927 49.8566 45.3628 50.2255 46.6958C50.0197 46.823 49.7825 46.8902 49.5405 46.8899L49.5403 46.8897ZM62.1291 60.973C62.1156 61.3093 61.9724 61.6274 61.7294 61.8603C61.4864 62.0932 61.1625 62.2229 60.8259 62.2221H60.6059V57.3798C60.6059 57.144 60.5122 56.9179 60.3455 56.7512C60.1788 56.5845 59.9527 56.4909 59.717 56.4909C59.4812 56.4909 59.2551 56.5845 59.0884 56.7512C58.9217 56.9179 58.8281 57.144 58.8281 57.3798V62.2221H50.3148V57.3798C50.3148 57.144 50.2211 56.9179 50.0544 56.7512C49.8877 56.5845 49.6616 56.4909 49.4259 56.4909C49.1901 56.4909 48.964 56.5845 48.7973 56.7512C48.6306 56.9179 48.537 57.144 48.537 57.3798V62.2221H48.3169C47.9803 62.2228 47.6565 62.0931 47.4136 61.8602C47.1706 61.6273 47.0273 61.3093 47.0138 60.973C46.9285 58.9512 46.8605 56.5324 47.004 53.9191C47.1003 52.6815 47.3393 52.4916 47.869 52.181C48.4683 51.8295 49.7347 51.5056 50.5648 51.2932L53.2235 50.6393C53.6851 50.5257 54.1152 50.4687 54.5446 50.4664C54.5519 50.4664 54.5591 50.4672 54.5663 50.4672H54.5746C54.5822 50.4672 54.5896 50.4664 54.5972 50.4664C55.0271 50.4686 55.4575 50.5257 55.9194 50.6393L58.57 51.2912C59.4081 51.5055 60.6746 51.8296 61.2738 52.181C61.8036 52.4916 62.0426 52.6815 62.1388 53.9195C62.2822 56.5332 62.2144 58.9517 62.1291 60.973Z" fill="#BF9F35"/>
</svg>
