<svg width="20" height="18" viewBox="0 0 20 18" fill="none" xmlns="http://www.w3.org/2000/svg">
<path d="M12.7835 2.4515C12.4599 2.4515 12.1975 2.17803 12.1975 1.84071V0.610788C12.1975 0.27347 12.4599 0 12.7835 0C13.1071 0 13.3694 0.27347 13.3694 0.610788V1.84071C13.3694 2.17803 13.1071 2.4515 12.7835 2.4515ZM18.0992 4.68727L19.121 4.07229C19.4013 3.90355 19.7596 4.00372 19.9214 4.29584C20.0832 4.588 19.9872 4.96155 19.707 5.13017L18.6851 5.74515C18.4055 5.91349 18.0469 5.81442 17.8847 5.52161C17.7229 5.22944 17.8189 4.85589 18.0992 4.68727ZM18.6851 11.4383L19.707 12.0532C19.9872 12.2219 20.0832 12.5954 19.9214 12.8876C19.7588 13.1812 19.3999 13.2791 19.121 13.1111L18.0992 12.4962C17.8189 12.3275 17.7229 11.954 17.8847 11.6618C18.0465 11.3697 18.4048 11.2695 18.6851 11.4383ZM6.88187 5.74515L5.86004 5.13017C5.5798 4.96151 5.48379 4.588 5.64559 4.29584C5.80738 4.00372 6.16566 3.90355 6.44598 4.07229L7.46781 4.68727C7.74805 4.85593 7.84406 5.22944 7.68226 5.52161C7.51965 5.81519 7.16078 5.91308 6.88187 5.74515ZM4.41773 9.45883C5.08848 7.73103 6.71551 6.58861 8.50543 6.59667C9.23891 4.89424 10.8803 3.70541 12.7835 3.70541C15.3682 3.70541 17.471 5.8974 17.471 8.59171C17.471 10.3203 16.605 11.8415 15.302 12.7103C16.6914 14.9983 15.1117 17.9978 12.5126 17.9978C3.29336 17.9878 3.79781 18.0224 3.63727 17.9705C1.58934 17.7297 0 15.9191 0 13.7224C0 11.2138 2.05633 9.26602 4.41773 9.45883ZM16.2991 8.59175C16.2991 6.57102 14.722 4.92702 12.7835 4.92702C11.4762 4.92702 10.3341 5.67503 9.72836 6.78166C11.5799 7.34721 12.8655 9.10925 12.8861 11.1309C13.4681 11.1975 14.0169 11.4241 14.4896 11.7946C15.5679 11.168 16.2991 9.96741 16.2991 8.59175ZM3.85891 16.7658C4.06762 16.7835 9.38484 16.7732 12.5126 16.7763C14.4446 16.7763 15.3862 14.2798 13.9486 12.9114C13.5171 12.5007 12.9426 12.2821 12.3165 12.3415C11.9388 12.377 11.631 12.0364 11.6832 11.6485C11.9548 9.62753 10.4535 7.81809 8.49219 7.81809C7.04125 7.81809 5.76242 8.83615 5.38234 10.2939C5.30109 10.6053 5.00137 10.797 4.69828 10.7318C2.87199 10.3381 1.17188 11.7934 1.17188 13.7224C1.17188 15.3005 2.35215 16.6373 3.85891 16.7658Z" fill="#BF9F35"/>
</svg>
