<svg width="10" height="22" viewBox="0 0 10 22" fill="none" xmlns="http://www.w3.org/2000/svg">
<path d="M5.82387 22H3.16364C2.71931 22 2.35784 21.5213 2.35784 20.9328V12.9863H0.805803C0.361437 12.9863 0 12.5074 0 11.9191V8.514C0 7.9255 0.361437 7.44683 0.805803 7.44683H2.35784V5.74166C2.35784 4.05092 2.7587 2.6125 3.51697 1.58207C4.27868 0.546992 5.34317 0 6.59535 0L8.62413 0.00438281C9.06772 0.00537109 9.42857 0.484086 9.42857 1.07151V4.23311C9.42857 4.82157 9.06723 5.30028 8.623 5.30028L7.25703 5.30093C6.84044 5.30093 6.73434 5.41153 6.71166 5.44543C6.67429 5.50172 6.6298 5.66062 6.6298 6.09954V7.4467H8.52037C8.66268 7.4467 8.80057 7.49319 8.91906 7.58076C9.17472 7.76995 9.33364 8.12763 9.33364 8.51417L9.33263 11.9193C9.33263 12.5074 8.97116 12.9861 8.52683 12.9861H6.62977V20.9328C6.6298 21.5213 6.26824 22 5.82387 22ZM3.33168 20.7103H5.65581V12.4089C5.65581 12.016 5.89726 11.6964 6.19381 11.6964H8.35876L8.35964 8.73662H6.19368C5.89713 8.73662 5.65581 8.41706 5.65581 8.02411V6.09959C5.65581 5.59573 5.69448 5.0227 5.98165 4.59198C6.32868 4.07133 6.87554 4.01126 7.25677 4.01126L8.4547 4.01057V1.29375L6.59457 1.28975C4.5822 1.28975 3.33171 2.99574 3.33171 5.7417V8.02407C3.33171 8.41681 3.09038 8.73658 2.7938 8.73658H0.973868V11.6964H2.7938C3.09038 11.6964 3.33171 12.016 3.33171 12.4089L3.33168 20.7103Z" fill="#BF9F35"/>
</svg>
